<svg aria-hidden="true" style="width:0;height:0;position:absolute;overflow:hidden" xmlns="http://www.w3.org/2000/svg"><defs><symbol id="icon-logo" viewBox="0 0 202 32"><path fill="#ed1d24" style="fill:var(--color1,#ed1d24)" d="M0 .5h98v31H0V.5z"/><path fill="#fafafa" style="fill:var(--color2,#fafafa)" d="M4.336 26.5V6.9h4.48l1.624 10.08L12.036 6.9H16.6v19.628h-3.64v-9.464L11.364 26.5H9.488l-1.596-9.352V26.5H4.336zM24.499 6.9l2.968 19.6h-3.556l-.392-3.024h-2.744l-.42 3.024h-3.5l2.94-19.6h4.704zm-1.344 13.44-1.008-8.232-.952 8.232h1.96zM31.611 6.9c.653 0 1.269.103 1.848.308a4.301 4.301 0 0 1 1.596.98c.467.429.849.989 1.148 1.68.317.691.523 1.531.616 2.52.131 1.213.093 2.231-.112 3.052-.187.803-.42 1.447-.7 1.932-.317.597-.7 1.064-1.148 1.4l2.324 7.728h-3.584l-1.708-6.58-.784.14v6.44h-3.528l.028-19.6h4.004zm-.504 9.688c.429-.037.784-.14 1.064-.308.28-.187.513-.42.7-.7s.317-.597.392-.952c.075-.355.112-.719.112-1.092 0-.392-.037-.775-.112-1.148a3.407 3.407 0 0 0-.364-1.036 1.953 1.953 0 0 0-.7-.756c-.28-.187-.644-.28-1.092-.28v6.272zM39.863 6.9l1.568 11.816L43.083 6.9h3.528l-3.108 19.6h-4.144L36.223 6.9h3.64zM46.833 26.5V6.9h6.58v3.472h-2.968v4.424h2.996v3.64h-3.164v4.424h3.192v3.64h-6.636zM58.041 6.872v16.1h3.024v3.556h-6.496V6.9l3.472-.028zM61.925 16.7c0-1.475.131-2.809.392-4.004.261-1.213.625-2.249 1.092-3.108s1.036-1.521 1.708-1.988 1.409-.7 2.212-.7c.803 0 1.531.233 2.184.7.672.467 1.241 1.129 1.708 1.988s.831 1.895 1.092 3.108c.261 1.195.392 2.529.392 4.004s-.131 2.819-.392 4.032c-.261 1.195-.625 2.221-1.092 3.08s-1.036 1.521-1.708 1.988c-.653.467-1.381.7-2.184.7s-1.54-.233-2.212-.7-1.241-1.129-1.708-1.988c-.467-.859-.831-1.885-1.092-3.08-.261-1.213-.392-2.557-.392-4.032zm3.472.056c0 .933.047 1.783.14 2.548s.224 1.428.392 1.988c.168.541.364.961.588 1.26.243.299.504.448.784.448s.532-.149.756-.448c.243-.299.439-.719.588-1.26.168-.56.299-1.223.392-1.988s.14-1.615.14-2.548-.047-1.783-.14-2.548c-.093-.784-.224-1.447-.392-1.988-.149-.541-.345-.961-.588-1.26-.224-.299-.476-.448-.756-.448s-.541.149-.784.448c-.224.299-.42.719-.588 1.26s-.299 1.204-.392 1.988c-.093.765-.14 1.615-.14 2.548zM84.241 16.812c0 .653-.009 1.353-.028 2.1 0 .728-.047 1.456-.14 2.184-.075.709-.215 1.391-.42 2.044s-.513 1.232-.924 1.736c-.392.485-.905.877-1.54 1.176s-1.419.448-2.352.448c-1.288 0-2.296-.224-3.024-.672-.709-.448-1.241-1.083-1.596-1.904-.336-.84-.541-1.848-.616-3.024a83.025 83.025 0 0 1-.084-3.92V6.872h3.444v9.94c.019 1.157.093 2.184.224 3.08.056.392.131.775.224 1.148.093.355.205.681.336.98.149.28.308.513.476.7a.902.902 0 0 0 .616.252c.28 0 .513-.084.7-.252.205-.187.373-.42.504-.7.149-.299.261-.625.336-.98.093-.373.168-.756.224-1.148.112-.896.159-1.923.14-3.08V6.9h3.5v9.912zM93.176 6.9c.019 0 .028.187.028.56v1.176c0 .523-.009 1.111-.028 1.764-.579 0-1.167.056-1.764.168a5.693 5.693 0 0 0-1.568.476 3.798 3.798 0 0 0-1.12.756 1.47 1.47 0 0 0-.42 1.036c0 .336.121.625.364.868.261.243.569.485.924.728.373.243.775.513 1.204.812.448.28.849.616 1.204 1.008.373.392.681.868.924 1.428.261.56.392 1.241.392 2.044 0 1.195-.224 2.221-.672 3.08a5.89 5.89 0 0 1-1.792 2.1c-.747.541-1.624.943-2.632 1.204s-2.072.392-3.192.392V23c.336 0 .775-.056 1.316-.168s1.064-.299 1.568-.56c.523-.261.971-.607 1.344-1.036s.551-.961.532-1.596c0-.317-.121-.588-.364-.812a4.784 4.784 0 0 0-.924-.7 39.911 39.911 0 0 0-1.148-.756 7.303 7.303 0 0 1-1.176-1.008 5.644 5.644 0 0 1-.896-1.456c-.224-.56-.336-1.251-.336-2.072 0-.859.243-1.652.728-2.38.504-.728 1.148-1.353 1.932-1.876s1.661-.933 2.632-1.232a10.118 10.118 0 0 1 2.94-.448zM109.784 6.9l2.968 19.6h-3.556l-.392-3.024h-2.744l-.42 3.024h-3.5l2.94-19.6h4.704zm-1.344 13.44-1.008-8.232-.952 8.232h1.96zM116.197 6.872c.896 0 1.67.168 2.324.504s1.213.784 1.68 1.344c.466.56.849 1.213 1.148 1.96.298.728.532 1.484.7 2.268s.28 1.577.336 2.38c.074.784.112 1.512.112 2.184 0 1.493-.159 2.753-.476 3.78-.299 1.027-.691 1.867-1.176 2.52-.467.653-.962 1.167-1.484 1.54a6.283 6.283 0 0 1-3.164 1.12h-3.444l.056-19.6h3.388zm.056 16.632.196-.028c.13-.019.298-.084.504-.196.224-.131.457-.327.7-.588.261-.261.494-.635.7-1.12.224-.485.401-1.092.532-1.82.149-.747.224-1.661.224-2.744 0-.28-.01-.644-.028-1.092a13.923 13.923 0 0 0-.14-1.428 10.845 10.845 0 0 0-.28-1.512 6.017 6.017 0 0 0-.532-1.372 2.772 2.772 0 0 0-.784-.98 1.75 1.75 0 0 0-1.148-.392l.056 13.272zM127.035 6.9l1.568 11.816L130.255 6.9h3.528l-3.108 19.6h-4.144l-3.136-19.6h3.64zM134.005 26.5V6.9h6.58v3.472h-2.968v4.424h2.996v3.64h-3.164v4.424h3.192v3.64h-6.636zM141.713 26.5V6.9h3.5l2.996 10.136V6.9h3.584v19.6h-3.584l-3.024-9.352v9.38l-3.472-.028zM163.601 6.9v3.556h-3.528V26.5h-3.444V10.456h-3.78V6.9h10.752zM175.788 16.812c0 .653-.009 1.353-.028 2.1 0 .728-.047 1.456-.14 2.184-.075.709-.215 1.391-.42 2.044s-.513 1.232-.924 1.736c-.392.485-.905.877-1.54 1.176s-1.419.448-2.352.448c-1.288 0-2.296-.224-3.024-.672-.709-.448-1.241-1.083-1.596-1.904-.336-.84-.541-1.848-.616-3.024a83.025 83.025 0 0 1-.084-3.92V6.872h3.444v9.94c.019 1.157.093 2.184.224 3.08.056.392.131.775.224 1.148.093.355.205.681.336.98.149.28.308.513.476.7a.902.902 0 0 0 .616.252c.28 0 .513-.084.7-.252.205-.187.373-.42.504-.7.149-.299.261-.625.336-.98.093-.373.168-.756.224-1.148.112-.896.159-1.923.14-3.08V6.9h3.5v9.912zM180.635 6.9c.653 0 1.269.103 1.848.308a4.301 4.301 0 0 1 1.596.98c.467.429.849.989 1.148 1.68.317.691.523 1.531.616 2.52.131 1.213.093 2.231-.112 3.052-.187.803-.42 1.447-.7 1.932-.317.597-.7 1.064-1.148 1.4l2.324 7.728h-3.584l-1.708-6.58-.784.14v6.44h-3.528l.028-19.6h4.004zm-.504 9.688c.429-.037.784-.14 1.064-.308.28-.187.513-.42.7-.7s.317-.597.392-.952c.075-.355.112-.719.112-1.092 0-.392-.037-.775-.112-1.148a3.407 3.407 0 0 0-.364-1.036 1.953 1.953 0 0 0-.7-.756c-.28-.187-.644-.28-1.092-.28v6.272z"/><path fill="#fafafa" style="fill:var(--color2,#fafafa)" d="M185.247 26.5V6.9h6.58v3.472h-2.968v4.424h2.996v3.64h-3.164v4.424h3.192v3.64h-6.636zM201.047 6.9c.019 0 .028.187.028.56v1.176c0 .523-.009 1.111-.028 1.764-.578 0-1.166.056-1.764.168a5.704 5.704 0 0 0-1.568.476 3.798 3.798 0 0 0-1.12.756 1.47 1.47 0 0 0-.42 1.036c0 .336.122.625.364.868.262.243.57.485.924.728.374.243.775.513 1.204.812.448.28.85.616 1.204 1.008.374.392.682.868.924 1.428.262.56.392 1.241.392 2.044 0 1.195-.224 2.221-.672 3.08a5.88 5.88 0 0 1-1.792 2.1c-.746.541-1.624.943-2.632 1.204s-2.072.392-3.192.392V23c.336 0 .775-.056 1.316-.168a6.064 6.064 0 0 0 1.568-.56 4.315 4.315 0 0 0 1.344-1.036c.374-.429.551-.961.532-1.596 0-.317-.121-.588-.364-.812a4.723 4.723 0 0 0-.924-.7 38.565 38.565 0 0 0-1.148-.756 7.39 7.39 0 0 1-1.176-1.008 5.671 5.671 0 0 1-.896-1.456c-.224-.56-.336-1.251-.336-2.072 0-.859.243-1.652.728-2.38.504-.728 1.148-1.353 1.932-1.876s1.662-.933 2.632-1.232c.99-.299 1.97-.448 2.94-.448z"/><path fill="none" stroke="#fafafa" style="stroke:var(--color2,#fafafa)" d="M104 1.5h96M104 31.5h96"/></symbol><symbol id="icon-blocks" viewBox="0 0 32 32"><path d="M32 16c0 8.837-7.163 16-16 16S0 24.837 0 16 7.163 0 16 0s16 7.163 16 16z"/></symbol><symbol id="icon-blocks1" viewBox="0 0 32 32"><path d="M32 16c0 8.837-7.163 16-16 16S0 24.837 0 16 7.163 0 16 0s16 7.163 16 16z"/></symbol><symbol id="icon-chevron-down" viewBox="0 0 32 32"><path fill="none" stroke="#fafafa" style="stroke:var(--color2,#fafafa)" stroke-linejoin="round" stroke-linecap="round" stroke-width="3.556" d="m8 12 8 8 8-8"/></symbol><symbol id="icon-close" viewBox="0 0 32 32"><path fill="none" stroke="#fafafa" style="stroke:var(--color2,#fafafa)" stroke-linejoin="round" stroke-linecap="round" stroke-width="2.286" d="M24 8 8 24M8 8l16 16"/></symbol><symbol id="icon-icon-arrow" viewBox="0 0 32 32"><path stroke-width=".471" d="M27.453 7.096 3.49 31.059.941 28.51 24.904 4.547H.941V.942h30.118V31.06h-3.605V7.097z"/></symbol><symbol id="icon-instagram" viewBox="0 0 32 32"><path fill="#fafafa" style="fill:var(--color2,#fafafa)" d="M19.991 11.115a.902.902 0 0 0-.828.553.892.892 0 0 0 .194.977.892.892 0 0 0 .977.194.895.895 0 0 0-.343-1.724zm3.435 1.807a5.646 5.646 0 0 0-.343-1.814 3.69 3.69 0 0 0-.866-1.322 3.518 3.518 0 0 0-1.322-.859 5.462 5.462 0 0 0-1.814-.351c-.791-.045-1.045-.045-3.076-.045s-2.285 0-3.076.045a5.462 5.462 0 0 0-1.814.351 3.57 3.57 0 0 0-1.322.859c-.383.37-.676.822-.859 1.322a5.462 5.462 0 0 0-.351 1.814c-.045.791-.045 1.045-.045 3.076s0 2.285.045 3.076c.013.62.132 1.234.351 1.814.182.5.476.952.859 1.322a3.57 3.57 0 0 0 1.322.859c.58.219 1.194.338 1.814.351.791.045 1.045.045 3.076.045s2.285 0 3.076-.045a5.462 5.462 0 0 0 1.814-.351c.5-.182.952-.476 1.322-.859.382-.371.678-.823.866-1.322a5.65 5.65 0 0 0 .343-1.814c0-.791.045-1.045.045-3.076s0-2.285-.045-3.076zm-1.344 6.063a4.167 4.167 0 0 1-.254 1.389 2.286 2.286 0 0 1-.56.859 2.373 2.373 0 0 1-.859.56 4.193 4.193 0 0 1-1.389.254c-.747.037-1.023.045-2.987.045s-2.24 0-2.987-.045a4.3 4.3 0 0 1-1.449-.224 2.433 2.433 0 0 1-.821-.56 2.245 2.245 0 0 1-.553-.859 4.164 4.164 0 0 1-.299-1.419c0-.747-.045-1.023-.045-2.987s0-2.24.045-2.987a4.14 4.14 0 0 1 .261-1.419 2.24 2.24 0 0 1 .59-.821c.227-.257.507-.461.821-.597a4.29 4.29 0 0 1 1.419-.254c.747 0 1.023-.045 2.987-.045s2.24 0 2.987.045c.474.005.944.091 1.389.254.339.126.644.331.889.597.245.229.436.51.56.821.166.455.252.935.254 1.419.037.747.045 1.023.045 2.987s-.007 2.24-.045 2.987zm-6.078-6.817a3.826 3.826 0 0 0-3.534 2.37 3.824 3.824 0 0 0 .835 4.171 3.83 3.83 0 0 0 6.246-4.18 3.831 3.831 0 0 0-3.547-2.362zm0 6.316a2.487 2.487 0 1 1 .003-4.975 2.487 2.487 0 0 1-.004 4.976z"/><path fill="none" stroke="#fafafa" style="stroke:var(--color2,#fafafa)" stroke-width=".8" d="M4.8.4h22.4a4.4 4.4 0 0 1 4.4 4.4v22.4a4.4 4.4 0 0 1-4.4 4.4H4.8a4.4 4.4 0 0 1-4.4-4.4V4.8A4.4 4.4 0 0 1 4.8.4z"/></symbol><symbol id="icon-search" viewBox="0 0 32 32"><path fill="none" stroke="#fafafa" style="stroke:var(--color2,#fafafa)" stroke-linejoin="round" stroke-linecap="round" stroke-width="3.556" d="M14.667 25.333c5.891 0 10.667-4.776 10.667-10.667S20.558 3.999 14.667 3.999 4 8.775 4 14.666s4.776 10.667 10.667 10.667zM28 28l-5.8-5.8"/></symbol><symbol id="icon-twitter" viewBox="0 0 32 32"><path fill="none" stroke="#fafafa" style="stroke:var(--color2,#fafafa)" stroke-linejoin="round" stroke-linecap="round" stroke-width="3.2" d="M30.667 4a14.542 14.542 0 0 1-4.187 2.04 5.975 5.975 0 0 0-6.637-1.661A5.979 5.979 0 0 0 16 10.04v1.333c-2.343.061-4.665-.459-6.759-1.513S4.902 6.297 3.555 4.379c0 0-4.889 12.954 7.111 18.287a15.519 15.519 0 0 1-9.333 2.667C13.333 32 28 25.333 28 10a5.966 5.966 0 0 0-.107-1.107A10.288 10.288 0 0 0 30.666 4z"/></symbol></defs></svg>