<svg width="90" height="21" viewBox="0 0 90 21" fill="none" xmlns="http://www.w3.org/2000/svg">
<path d="M0.335938 20.5V0.900009H4.81594L6.43994 10.98L8.03594 0.900009H12.5999V20.528H8.95994V11.064L7.36394 20.5H5.48794L3.89194 11.148V20.5H0.335938Z" fill="#FAFAFA"/>
<path d="M20.4988 0.900009L23.4668 20.5H19.9108L19.5188 17.476H16.7748L16.3548 20.5H12.8548L15.7948 0.900009H20.4988ZM19.1548 14.34L18.1468 6.10801L17.1948 14.34H19.1548Z" fill="#FAFAFA"/>
<path d="M27.6114 0.900009C28.2648 0.900009 28.8808 1.00268 29.4594 1.20801C30.0568 1.41334 30.5888 1.74001 31.0554 2.18801C31.5221 2.61734 31.9048 3.17734 32.2034 3.86801C32.5208 4.55868 32.7261 5.39868 32.8194 6.38801C32.9501 7.60134 32.9128 8.61868 32.7074 9.44001C32.5208 10.2427 32.2874 10.8867 32.0074 11.372C31.6901 11.9693 31.3074 12.436 30.8594 12.772L33.1834 20.5H29.5994L27.8914 13.92L27.1074 14.06V20.5H23.5794L23.6074 0.900009H27.6114ZM27.1074 10.588C27.5368 10.5507 27.8914 10.448 28.1714 10.28C28.4514 10.0933 28.6848 9.86001 28.8714 9.58001C29.0581 9.30001 29.1888 8.98268 29.2634 8.62801C29.3381 8.27334 29.3754 7.90934 29.3754 7.53601C29.3754 7.14401 29.3381 6.76134 29.2634 6.38801C29.1888 5.99601 29.0674 5.65068 28.8994 5.35201C28.7314 5.03468 28.4981 4.78268 28.1994 4.59601C27.9194 4.40934 27.5554 4.31601 27.1074 4.31601V10.588Z" fill="#FAFAFA"/>
<path d="M35.8633 0.900009L37.4313 12.716L39.0833 0.900009H42.6113L39.5033 20.5H35.3593L32.2233 0.900009H35.8633Z" fill="#FAFAFA"/>
<path d="M42.8327 20.5V0.900009H49.4127V4.37201H46.4447V8.79601H49.4407V12.436H46.2767V16.86H49.4687V20.5H42.8327Z" fill="#FAFAFA"/>
<path d="M54.041 0.872009V16.972H57.065V20.528H50.569V0.900009L54.041 0.872009Z" fill="#FAFAFA"/>
<path d="M57.9252 10.7C57.9252 9.22534 58.0558 7.89068 58.3172 6.69601C58.5785 5.48268 58.9425 4.44668 59.4092 3.58801C59.8758 2.72934 60.4452 2.06668 61.1172 1.60001C61.7892 1.13334 62.5265 0.900009 63.3292 0.900009C64.1318 0.900009 64.8598 1.13334 65.5132 1.60001C66.1852 2.06668 66.7545 2.72934 67.2212 3.58801C67.6878 4.44668 68.0518 5.48268 68.3132 6.69601C68.5745 7.89068 68.7052 9.22534 68.7052 10.7C68.7052 12.1747 68.5745 13.5187 68.3132 14.732C68.0518 15.9267 67.6878 16.9533 67.2212 17.812C66.7545 18.6707 66.1852 19.3333 65.5132 19.8C64.8598 20.2667 64.1318 20.5 63.3292 20.5C62.5265 20.5 61.7892 20.2667 61.1172 19.8C60.4452 19.3333 59.8758 18.6707 59.4092 17.812C58.9425 16.9533 58.5785 15.9267 58.3172 14.732C58.0558 13.5187 57.9252 12.1747 57.9252 10.7ZM61.3972 10.756C61.3972 11.6893 61.4438 12.5387 61.5372 13.304C61.6305 14.0693 61.7612 14.732 61.9292 15.292C62.0972 15.8333 62.2932 16.2533 62.5172 16.552C62.7598 16.8507 63.0212 17 63.3012 17C63.5812 17 63.8332 16.8507 64.0572 16.552C64.2998 16.2533 64.4958 15.8333 64.6452 15.292C64.8132 14.732 64.9438 14.0693 65.0372 13.304C65.1305 12.5387 65.1772 11.6893 65.1772 10.756C65.1772 9.82268 65.1305 8.97334 65.0372 8.20801C64.9438 7.42401 64.8132 6.76134 64.6452 6.22001C64.4958 5.67868 64.2998 5.25868 64.0572 4.96001C63.8332 4.66134 63.5812 4.51201 63.3012 4.51201C63.0212 4.51201 62.7598 4.66134 62.5172 4.96001C62.2932 5.25868 62.0972 5.67868 61.9292 6.22001C61.7612 6.76134 61.6305 7.42401 61.5372 8.20801C61.4438 8.97334 61.3972 9.82268 61.3972 10.756Z" fill="#FAFAFA"/>
<path d="M80.2409 10.812C80.2409 11.4653 80.2316 12.1653 80.2129 12.912C80.2129 13.64 80.1663 14.368 80.0729 15.096C79.9983 15.8053 79.8583 16.4867 79.6529 17.14C79.4476 17.7933 79.1396 18.372 78.7289 18.876C78.3369 19.3613 77.8236 19.7533 77.1889 20.052C76.5543 20.3507 75.7703 20.5 74.8369 20.5C73.5489 20.5 72.5409 20.276 71.8129 19.828C71.1036 19.38 70.5716 18.7453 70.2169 17.924C69.8809 17.084 69.6756 16.076 69.6009 14.9C69.5449 13.724 69.5169 12.4173 69.5169 10.98V0.872009H72.9609V10.812C72.9796 11.9693 73.0543 12.996 73.1849 13.892C73.2409 14.284 73.3156 14.6667 73.4089 15.04C73.5023 15.3947 73.6143 15.7213 73.7449 16.02C73.8943 16.3 74.0529 16.5333 74.2209 16.72C74.4076 16.888 74.6129 16.972 74.8369 16.972C75.1169 16.972 75.3503 16.888 75.5369 16.72C75.7423 16.5333 75.9103 16.3 76.0409 16.02C76.1903 15.7213 76.3023 15.3947 76.3769 15.04C76.4703 14.6667 76.5449 14.284 76.6009 13.892C76.7129 12.996 76.7596 11.9693 76.7409 10.812V0.900009H80.2409V10.812Z" fill="#FAFAFA"/>
<path d="M89.176 0.900009C89.1947 0.900009 89.204 1.08668 89.204 1.46001C89.204 1.81468 89.204 2.20668 89.204 2.63601C89.204 3.15868 89.1947 3.74668 89.176 4.40001C88.5973 4.40001 88.0093 4.45601 87.412 4.56801C86.8333 4.66134 86.3107 4.82001 85.844 5.04401C85.396 5.24934 85.0227 5.50134 84.724 5.80001C84.444 6.09868 84.304 6.44401 84.304 6.83601C84.304 7.17201 84.4253 7.46134 84.668 7.70401C84.9293 7.94668 85.2373 8.18934 85.592 8.43201C85.9653 8.67468 86.3667 8.94534 86.796 9.24401C87.244 9.52401 87.6453 9.86001 88 10.252C88.3733 10.644 88.6813 11.12 88.924 11.68C89.1853 12.24 89.316 12.9213 89.316 13.724C89.316 14.9187 89.092 15.9453 88.644 16.804C88.2147 17.644 87.6173 18.344 86.852 18.904C86.1053 19.4453 85.228 19.8467 84.22 20.108C83.212 20.3693 82.148 20.5 81.028 20.5V17C81.364 17 81.8027 16.944 82.344 16.832C82.8853 16.72 83.408 16.5333 83.912 16.272C84.4347 16.0107 84.8827 15.6653 85.256 15.236C85.6293 14.8067 85.8067 14.2747 85.788 13.64C85.788 13.3227 85.6667 13.052 85.424 12.828C85.1813 12.5853 84.8733 12.352 84.5 12.128C84.1453 11.8853 83.7627 11.6333 83.352 11.372C82.9413 11.092 82.5493 10.756 82.176 10.364C81.8213 9.95334 81.5227 9.46801 81.28 8.90801C81.056 8.34801 80.944 7.65734 80.944 6.83601C80.944 5.97734 81.1867 5.18401 81.672 4.45601C82.176 3.72801 82.82 3.10268 83.604 2.58001C84.388 2.05734 85.2653 1.64668 86.236 1.34801C87.2253 1.04934 88.2053 0.900009 89.176 0.900009Z" fill="#FAFAFA"/>
</svg>
